<svg width="43" height="44" viewBox="0 0 43 44" fill="none" xmlns="http://www.w3.org/2000/svg">
<path fill-rule="evenodd" clip-rule="evenodd" d="M22.9999 14.2516L22.9999 28.3663L28.4932 22.8716C29.0132 22.3503 29.8666 22.3503 30.3866 22.8716C30.9066 23.3916 30.9066 24.2356 30.3866 24.757L22.8386 32.2983C22.5186 32.6183 22.0813 32.7183 21.6666 32.645C21.2519 32.7183 20.8145 32.6183 20.4945 32.2983L12.9533 24.757C12.432 24.2356 12.432 23.3916 12.9533 22.8716C13.4733 22.3503 14.3173 22.3503 14.8386 22.8716L20.3333 28.3663L20.3333 14.2516C20.3333 13.5143 20.9306 12.9183 21.6666 12.9183C22.4039 12.9183 22.9999 13.5143 22.9999 14.2516ZM0.333252 6.25163L0.333252 38.2516C0.333252 41.197 2.72125 43.585 5.66659 43.585H37.6666C40.6133 43.585 42.9999 41.197 42.9999 38.2516V6.25163C42.9999 3.30629 40.6133 0.918293 37.6666 0.918293H5.66659C2.72125 0.918293 0.333252 3.30629 0.333252 6.25163Z" fill="#8A6442"/>
</svg>
