<svg width="43" height="43" viewBox="0 0 43 43" fill="none" xmlns="http://www.w3.org/2000/svg">
<path fill-rule="evenodd" clip-rule="evenodd" d="M22.8386 11.538L30.3866 19.0793C30.9066 19.6006 30.9066 20.4446 30.3866 20.9646C29.8532 21.486 29.0132 21.486 28.4932 20.9646L22.9999 15.47V29.5846C22.9999 30.322 22.4026 30.918 21.6666 30.918C20.9293 30.918 20.3333 30.322 20.3333 29.5846V15.47L14.8386 20.9646C14.3173 21.486 13.472 21.486 12.9533 20.9646C12.432 20.4446 12.432 19.6006 12.9533 19.0793L20.4945 11.538C20.8145 11.218 21.2519 11.118 21.6666 11.1913C22.0813 11.118 22.5186 11.218 22.8386 11.538ZM0.333252 5.58463L0.333252 37.5846C0.333252 40.53 2.72125 42.918 5.66659 42.918H37.6666C40.6133 42.918 42.9999 40.53 42.9999 37.5846V5.58463C42.9999 2.6393 40.6133 0.251301 37.6666 0.251301H5.66659C2.72125 0.251301 0.333252 2.6393 0.333252 5.58463Z" fill="#8A6442"/>
</svg>
