<svg width="56" height="55" viewBox="0 0 56 55" fill="none" xmlns="http://www.w3.org/2000/svg">
<path d="M4.15283 0.426758L8.44506 48.6137L27.7048 53.9838L47.0183 48.5941L51.314 0.426758H4.15283ZM42.397 11.4666L40.9682 27.5192L40.9725 27.6059L40.9665 27.8052V27.8035L39.9514 39.0278L39.8396 40.025L27.7334 43.3734L27.724 43.3819L15.6388 40.0147L14.8204 30.7349H20.7467L21.1672 35.4536L27.7351 37.2336L27.7334 37.237V37.2362L34.3256 35.4309L35.0223 27.7468H21.2415L21.1232 26.4478L20.8539 23.4046L20.7126 21.7705H35.5461L36.0856 15.7943H13.4929L13.3746 14.4961L13.1057 11.4521L12.964 9.81801H42.5383L42.397 11.4666Z" fill="#8A6442"/>
</svg>
