<svg width="9" height="9" viewBox="0 0 9 9" fill="none" xmlns="http://www.w3.org/2000/svg">
<path d="M3.5001 1.25H2.6001C2.04005 1.25 1.75981 1.25 1.5459 1.35899C1.35774 1.45486 1.20486 1.60774 1.10899 1.7959C1 2.00981 1 2.29005 1 2.8501V6.6501C1 7.21015 1 7.49005 1.10899 7.70395C1.20486 7.8921 1.35774 8.04525 1.5459 8.1411C1.7596 8.25 2.03949 8.25 2.59845 8.25H6.40155C6.9605 8.25 7.24 8.25 7.4537 8.1411C7.64185 8.04525 7.79525 7.89195 7.8911 7.7038C8 7.4901 8 7.2105 8 6.65155V5.75M8.5 3.25V0.75M8.5 0.75H6M8.5 0.75L5 4.25" stroke="#E6DED8" stroke-linecap="round" stroke-linejoin="round"/>
</svg>
