<svg width="55" height="55" viewBox="0 0 55 55" fill="none" xmlns="http://www.w3.org/2000/svg">
<g clip-path="url(#clip0_228_90)">
<path d="M19.4764 55.3467C24.5562 55.3467 28.6542 51.2487 28.6542 46.1688V36.991H19.4764C14.3966 36.991 10.2986 41.089 10.2986 46.1688C10.2986 51.2487 14.3966 55.3467 19.4764 55.3467ZM10.2986 27.8132C10.2986 22.7334 14.3966 18.6354 19.4764 18.6354H28.6542V36.991H19.4764C14.3966 36.991 10.2986 32.893 10.2986 27.8132ZM10.2986 9.4576C10.2986 4.37779 14.3966 0.279785 19.4764 0.279785H28.6542V18.6354H19.4764C14.3966 18.6354 10.2986 14.5374 10.2986 9.4576ZM28.6542 0.279785H37.832C42.9118 0.279785 47.0098 4.37779 47.0098 9.4576C47.0098 14.5374 42.9118 18.6354 37.832 18.6354H28.6542V0.279785ZM47.0098 27.8132C47.0098 32.893 42.9118 36.991 37.832 36.991C32.7522 36.991 28.6542 32.893 28.6542 27.8132C28.6542 22.7334 32.7522 18.6354 37.832 18.6354C42.9118 18.6354 47.0098 22.7334 47.0098 27.8132Z" fill="#8A6442"/>
</g>
<defs>
<clipPath id="clip0_228_90">
<rect width="54.64" height="54.64" fill="white" transform="translate(0.0534668 0.279785)"/>
</clipPath>
</defs>
</svg>
