<svg width="56" height="56" viewBox="0 0 56 56" fill="none" xmlns="http://www.w3.org/2000/svg">
<path d="M53.9406 25.5601L30.4129 2.03327C29.0589 0.678365 26.8613 0.678365 25.5052 2.03327L20.62 6.91928L26.8174 13.1167C28.2581 12.6304 29.9092 12.9566 31.0571 14.1044C32.2109 15.2596 32.5345 16.9248 32.0363 18.3702L38.0092 24.3435C39.4541 23.8453 41.122 24.1672 42.2754 25.3231C43.889 26.9354 43.889 29.5492 42.2754 31.1624C41.8919 31.546 41.4366 31.8503 40.9355 32.058C40.4344 32.2656 39.8973 32.3725 39.3549 32.3725C38.8125 32.3725 38.2754 32.2656 37.7743 32.058C37.2732 31.8503 36.8179 31.546 36.4344 31.1624C35.8583 30.5859 35.4656 29.8519 35.3057 29.0527C35.1458 28.2536 35.2259 27.425 35.5359 26.6712L29.966 21.1013L29.9651 35.7607C30.3693 35.9597 30.7382 36.2232 31.0575 36.541C32.6703 38.1533 32.6703 40.7662 31.0575 42.3819C29.4444 43.9942 26.8297 43.9942 25.2183 42.3819C23.6056 40.7666 23.6056 38.1537 25.2183 36.541C25.6047 36.154 26.0642 35.8478 26.5702 35.6403V20.8452C26.0638 20.6383 25.6041 20.3319 25.2183 19.9441C23.9966 18.7232 23.7025 16.9304 24.3291 15.4295L18.2193 9.3196L2.08679 25.4512C1.43594 26.1023 1.07031 26.9852 1.07031 27.9057C1.07031 28.8263 1.43594 29.7092 2.08679 30.3603L25.6149 53.8871C26.9698 55.242 29.1665 55.242 30.5235 53.8871L53.941 30.4695C54.5917 29.8183 54.9572 28.9353 54.9571 28.0147C54.957 27.0941 54.5914 26.2112 53.9406 25.5601Z" fill="#8A6442"/>
</svg>
