<svg width="56" height="56" viewBox="0 0 56 56" fill="none" xmlns="http://www.w3.org/2000/svg">
<path d="M1.6272 1.06689V54.4263H54.9866V1.06689H1.6272ZM29.8517 46.5346C29.0642 48.135 27.5607 49.1864 25.8186 49.6939C23.1417 50.3086 20.5813 49.9582 18.6766 48.815C17.4019 48.033 16.4065 46.8292 15.7307 45.4423L19.7946 42.9536C19.83 42.9685 19.9367 43.1615 20.0793 43.4108C20.5975 44.279 21.0445 44.8937 21.923 45.3253C22.7861 45.6198 24.681 45.8081 25.4127 44.2893C25.8596 43.5166 25.7175 41.0331 25.7175 38.2853C25.717 33.9674 25.7371 29.6675 25.7371 25.3988H30.7354C30.7354 30.0944 30.761 34.5416 30.7354 39.1237C30.746 41.9325 30.9898 44.4365 29.8517 46.5346ZM50.5868 45.1225C48.8494 51.0655 39.1627 51.2584 35.2918 47.332C34.4739 46.4078 33.9613 45.9251 33.4734 44.8583C35.5305 43.675 35.5305 43.675 37.5321 42.5169C38.6193 44.1881 39.6246 45.1072 41.4333 45.4832C43.887 45.7829 46.3556 44.9398 45.8019 42.3338C45.2329 40.2054 40.7776 39.6876 37.7455 37.4115C34.6673 35.3441 33.9459 30.3206 36.4756 27.4503C37.3186 26.3887 38.7564 25.5964 40.2649 25.2156L41.8392 25.012C44.8619 24.951 46.7513 25.7492 48.1382 27.2979C48.5241 27.689 48.8391 28.1107 49.4282 29.0246C47.8181 30.0509 47.8232 30.041 45.5168 31.5342C45.0242 30.473 44.2067 29.8071 43.3427 29.5177C42.0015 29.1113 40.3102 29.5531 39.9593 30.9703C39.8376 31.407 39.8628 31.8134 40.0562 32.5348C40.5996 33.7741 42.4232 34.3128 44.059 35.0645C48.7679 36.9743 50.358 39.0221 50.749 41.4595C51.1255 43.558 50.6581 44.9193 50.5868 45.1225Z" fill="#8A6442"/>
</svg>
