<svg width="56" height="55" viewBox="0 0 56 55" fill="none" xmlns="http://www.w3.org/2000/svg">
<g clip-path="url(#clip0_228_88)">
<path d="M20.7398 42.1646C12.5472 44.4535 25.7244 49.182 36.1564 44.7126C34.4476 44.0484 33.222 43.2821 33.222 43.2821C28.5704 44.1615 26.4125 44.2306 22.1899 43.7483C18.7049 43.3491 20.7398 42.1646 20.7398 42.1646ZM34.9073 37.6994C28.7416 38.8857 25.1801 38.8477 20.6693 38.3824C17.1814 38.0217 19.4647 36.3313 19.4647 36.3313C10.4418 39.3263 24.4877 42.7246 37.0985 39.036C35.7581 38.5639 34.9073 37.6994 34.9073 37.6994ZM39.7391 11.8415C39.7396 11.8415 21.4983 16.3958 30.21 26.4351C32.7815 29.3954 29.5355 32.057 29.5355 32.057C29.5355 32.057 36.062 28.6885 33.0654 24.4685C30.2655 20.5348 28.1192 18.5806 39.7391 11.8415ZM44.007 46.4798C44.007 46.4798 45.5135 47.722 42.3473 48.6821C36.3276 50.5057 17.2872 51.0555 11.9987 48.7551C10.0991 47.9278 13.663 46.7808 14.7844 46.5387C15.9537 46.2856 16.6213 46.3317 16.6213 46.3317C14.5074 44.8432 2.95574 49.2558 10.7552 50.5215C32.0225 53.9689 49.5227 48.9689 44.007 46.4798ZM36.6977 33.5314C37.72 32.8339 39.1321 32.2282 39.1321 32.2282C39.1321 32.2282 35.1092 32.9475 31.1013 33.2843C26.1948 33.6958 20.9319 33.7769 18.2899 33.4234C12.0354 32.5872 21.719 30.2868 21.719 30.2868C21.719 30.2868 17.9574 30.0323 13.3335 32.2692C7.86438 34.9137 26.8616 36.1192 36.6977 33.5314ZM39.092 39.9965C39.0459 40.1203 38.8922 40.2594 38.8922 40.2594C52.2419 36.7501 47.3337 27.889 40.9506 30.1318C40.3905 30.3299 40.0969 30.7905 40.0969 30.7905C40.0969 30.7905 40.4507 30.6479 41.24 30.4831C44.4668 29.8108 49.0898 34.8027 39.092 39.9965ZM27.8105 30.1903C25.8409 25.7384 19.1621 21.8436 27.8135 15.011C38.6011 6.49616 33.0658 0.957031 33.0658 0.957031C35.2984 9.75407 25.1895 12.4114 21.5406 17.8899C19.0558 21.6229 22.7602 25.6342 27.8105 30.1903ZM39.4531 52.2802C31.2627 53.8221 21.1598 53.6424 15.1695 52.6533C15.1695 52.6533 16.3963 53.6693 22.7021 54.0752C32.2966 54.6886 47.034 53.7337 47.3823 49.1935C47.3828 49.1935 46.7121 50.9146 39.4531 52.2802Z" fill="#8A6442"/>
</g>
<defs>
<clipPath id="clip0_228_88">
<rect width="54.64" height="54.64" fill="white" transform="translate(0.41333 0.279785)"/>
</clipPath>
</defs>
</svg>
