<svg width="56" height="56" viewBox="0 0 56 56" fill="none" xmlns="http://www.w3.org/2000/svg">
<path d="M21.4712 27.1064H33.9184C37.3834 27.1064 40.1128 24.1746 40.1128 20.6952V8.82892C40.1128 5.45148 37.2818 2.91414 33.8996 2.35066C31.7593 1.99422 29.5476 1.83201 27.4167 1.84225C25.2866 1.85207 23.3136 2.03349 21.5237 2.35066C16.2496 3.28168 15.354 5.23249 15.354 8.82892V13.4464H27.7334V15.1539H10.5628C6.94119 15.1539 3.76951 17.3344 2.77788 21.4764C1.63343 26.2232 1.58263 29.1255 2.77788 34.082C3.66365 37.771 5.77881 40.3395 9.40085 40.3395H13.6465V34.7697C13.6465 30.6559 17.2443 27.1064 21.4712 27.1064ZM20.6866 10.4113C19.3948 10.4113 18.3482 9.35312 18.3482 8.04432C18.3482 6.72997 19.3944 5.66193 20.6866 5.66193C21.9736 5.66193 23.0254 6.72997 23.0254 8.04432C23.025 9.35312 21.9732 10.4113 20.6866 10.4113ZM52.6121 21.4764C51.7165 17.8701 50.0069 15.1539 46.3802 15.1539H41.8203V20.6952C41.8203 24.9853 38.0664 28.387 33.9184 28.387H21.4712C18.0613 28.387 15.354 31.5143 15.354 34.9293V46.7965C15.354 50.173 18.2333 52.1597 21.5275 53.1287C25.4727 54.2885 29.2087 54.4981 33.9287 53.1287C37.0658 52.2199 40.1128 50.392 40.1128 46.7965V42.047H27.7334V40.3395H46.3802C50.0018 40.3395 51.352 37.8739 52.6121 34.0816C53.9128 30.1778 53.8569 26.4836 52.6121 21.4764ZM34.7026 45.2132C35.9947 45.2132 37.0414 46.2714 37.0414 47.5811C37.0414 48.8941 35.9952 49.9626 34.7026 49.9626C33.4156 49.9626 32.3642 48.8945 32.3642 47.5811C32.3642 46.2714 33.4156 45.2132 34.7026 45.2132Z" fill="#8A6442"/>
</svg>
