<svg width="55" height="55" viewBox="0 0 55 55" fill="none" xmlns="http://www.w3.org/2000/svg">
<g clip-path="url(#clip0_228_72)">
<path d="M27.3735 31.7596C30.0611 31.7596 32.2398 29.5809 32.2398 26.8932C32.2398 24.2056 30.0611 22.0269 27.3735 22.0269C24.6858 22.0269 22.5071 24.2056 22.5071 26.8932C22.5071 29.5809 24.6858 31.7596 27.3735 31.7596Z" fill="#8A6442"/>
<path d="M45.8572 18.8678C44.9181 18.5263 43.9362 18.1848 42.9118 17.886C43.1679 16.8615 43.3813 15.837 43.5521 14.8552C44.4485 9.22045 43.4667 5.25051 40.7347 3.71376C39.9236 3.2442 39.0272 3.03076 38.0027 3.03076C35.0146 3.03076 31.2154 5.25051 27.3735 8.96432C23.5316 5.25051 19.7324 3.03076 16.7443 3.03076C15.7198 3.03076 14.8234 3.2442 14.0123 3.71376C11.2803 5.2932 10.2985 9.26314 11.1949 14.8552C11.3657 15.837 11.5791 16.8615 11.8352 17.886C10.8107 18.1848 9.82894 18.4836 8.88981 18.8678C3.55387 20.9168 0.651123 23.7342 0.651123 26.8931C0.651123 30.052 3.59656 32.8693 8.88981 34.9183C9.82894 35.2598 10.8107 35.6013 11.8352 35.9001C11.5791 36.9246 11.3657 37.9491 11.1949 38.9309C10.2985 44.5657 11.2803 48.5356 14.0123 50.0724C14.8234 50.542 15.7198 50.7554 16.7443 50.7554C19.7751 50.7554 23.5743 48.5356 27.3735 44.8218C31.2154 48.5356 35.0146 50.7554 38.0027 50.7554C39.0272 50.7554 39.9236 50.542 40.7347 50.0724C43.4667 48.493 44.4485 44.523 43.5521 38.9309C43.3813 37.9491 43.1679 36.9246 42.9118 35.9001C43.9362 35.6013 44.9181 35.3025 45.8572 34.9183C51.1931 32.8693 54.0959 30.052 54.0959 26.8931C54.0959 23.7342 51.1931 20.9168 45.8572 18.8678ZM39.5394 5.84814C41.2896 6.87264 41.8873 10.0315 41.1616 14.5137C41.0335 15.4101 40.8201 16.3493 40.5639 17.3311C38.3442 16.8188 35.9964 16.4773 33.5205 16.2639C32.0691 14.2149 30.5751 12.3793 29.081 10.7145C32.2399 7.59832 35.4414 5.46395 38.0454 5.46395C38.6003 5.46395 39.1126 5.59201 39.5394 5.84814ZM34.7584 31.1618C33.9901 32.5278 33.0936 33.8938 32.1545 35.2598C30.5751 35.3879 28.9956 35.4306 27.3735 35.4306C25.7087 35.4306 24.1292 35.3879 22.5925 35.2598C21.6534 33.8938 20.7996 32.5278 20.0312 31.1618C19.2202 29.7531 18.4518 28.3018 17.7688 26.8931C18.4518 25.4844 19.2202 24.033 20.0312 22.6243C20.7996 21.2583 21.6961 19.8923 22.6352 18.5263C24.2146 18.3983 25.7941 18.3556 27.4162 18.3556C29.081 18.3556 30.6604 18.3983 32.1972 18.5263C33.1363 19.8923 33.9901 21.2583 34.7584 22.6243C35.5695 24.033 36.3379 25.4844 37.0209 26.8931C36.2952 28.3018 35.5695 29.7104 34.7584 31.1618ZM38.3015 29.7531C38.9418 31.2472 39.4541 32.6986 39.9236 34.15C38.4723 34.4914 36.9355 34.7476 35.3134 34.961C35.8256 34.15 36.3806 33.2962 36.8501 32.3998C37.3624 31.5033 37.8319 30.6069 38.3015 29.7531ZM27.3735 41.3214C26.349 40.2116 25.3672 39.0163 24.4281 37.7784C25.4099 37.8211 26.3917 37.8638 27.3735 37.8638C28.3553 37.8638 29.3371 37.8211 30.3189 37.7784C29.3798 39.0163 28.398 40.2116 27.3735 41.3214ZM19.4336 34.9183C17.8115 34.7049 16.2747 34.4488 14.8234 34.1073C15.2929 32.6986 15.8052 31.2045 16.4455 29.7104C16.9151 30.5642 17.3846 31.4606 17.8969 32.3144C18.4091 33.2535 18.9214 34.0646 19.4336 34.9183ZM16.4455 24.033C15.8052 22.5389 15.2929 21.0876 14.8234 19.6362C16.2747 19.2947 17.8115 19.0386 19.4336 18.8251C18.9214 19.6362 18.3664 20.4899 17.8969 21.3864C17.3846 22.2828 16.9151 23.1793 16.4455 24.033ZM27.3735 12.4647C28.398 13.5746 29.3798 14.7698 30.3189 16.0078C29.3371 15.9651 28.3553 15.9224 27.3735 15.9224C26.3917 15.9224 25.4099 15.9651 24.4281 16.0078C25.3672 14.7698 26.349 13.5746 27.3735 12.4647ZM36.8501 21.4291L35.3134 18.8678C36.9355 19.0813 38.4723 19.3374 39.9236 19.6789C39.4541 21.0876 38.9418 22.5816 38.3015 24.0757C37.8319 23.1793 37.3624 22.2828 36.8501 21.4291ZM13.5854 14.5137C12.8597 10.0315 13.4574 6.87264 15.2076 5.84814C15.6344 5.59201 16.1467 5.46395 16.7016 5.46395C19.2629 5.46395 22.4644 7.55564 25.666 10.7145C24.1719 12.3366 22.6779 14.2149 21.2265 16.2639C18.7506 16.4773 16.4028 16.8615 14.1831 17.3311C13.9269 16.3493 13.7562 15.4101 13.5854 14.5137ZM3.04162 26.8931C3.04162 24.8868 5.47481 22.7524 9.74356 21.1729C10.5973 20.8314 11.5364 20.5326 12.4756 20.2765C13.1586 22.4109 14.0123 24.6733 15.0368 26.9358C14.0123 29.1982 13.1159 31.4179 12.4756 33.5523C6.58469 31.8448 3.04162 29.2836 3.04162 26.8931ZM15.2076 47.938C13.4574 46.9135 12.8597 43.7546 13.5854 39.2724C13.7135 38.376 13.9269 37.4369 14.1831 36.4551C16.4028 36.9673 18.7506 37.3088 21.2265 37.5223C22.6779 39.5713 24.1719 41.4068 25.666 43.0716C22.5071 46.1878 19.3056 48.3222 16.7016 48.3222C16.1467 48.3222 15.6344 48.1941 15.2076 47.938ZM41.1616 39.2724C41.8873 43.7546 41.2896 46.9135 39.5394 47.938C39.1126 48.1941 38.6003 48.3222 38.0454 48.3222C35.4841 48.3222 32.2826 46.2305 29.081 43.0716C30.5751 41.4495 32.0691 39.5713 33.5205 37.5223C35.9964 37.3088 38.3442 36.9246 40.5639 36.4551C40.8201 37.4369 40.9908 38.376 41.1616 39.2724ZM45.0034 32.6132C44.1497 32.9547 43.2106 33.2535 42.2714 33.5096C41.5884 31.3753 40.7347 29.1128 39.7102 26.8504C40.7347 24.5879 41.6311 22.3682 42.2714 20.2338C48.1623 21.9413 51.7054 24.5026 51.7054 26.8931C51.7054 28.8994 49.2295 31.0338 45.0034 32.6132Z" fill="#8A6442"/>
</g>
<defs>
<clipPath id="clip0_228_72">
<rect width="54.64" height="54.64" fill="white" transform="translate(0.0534668)"/>
</clipPath>
</defs>
</svg>
