<svg width="56" height="55" viewBox="0 0 56 55" fill="none" xmlns="http://www.w3.org/2000/svg">
<path d="M1.54712 27.2817V53.9614H54.9065V0.602051H1.54712V27.2817ZM44.5462 25.1474C45.8243 25.4439 46.9858 26.1124 47.8844 27.0683C48.3791 27.5833 48.8091 28.1567 49.165 28.7758C49.165 28.8441 46.8599 30.4022 45.4555 31.273C45.4043 31.3072 45.1994 31.0852 44.9731 30.748C44.7167 30.3056 44.3525 29.9354 43.9143 29.6719C43.4761 29.4083 42.9783 29.2602 42.4674 29.2411C40.8495 29.1301 39.8079 29.9796 39.8165 31.3755C39.8031 31.723 39.8827 32.0678 40.047 32.3744C40.4013 33.1128 41.0629 33.5525 43.1376 34.449C46.9581 36.0924 48.593 37.1767 49.609 38.7177C50.7445 40.4252 50.9963 43.1828 50.2279 45.2233C49.3742 47.443 47.2825 48.9499 44.3243 49.4494C42.9731 49.6041 41.608 49.5898 40.2604 49.4067C38.2038 49.073 36.3066 48.0938 34.8434 46.6106C34.3525 46.0685 33.3963 44.6555 33.456 44.5531C33.6119 44.4374 33.7759 44.3333 33.9469 44.2415L35.9106 43.1145L37.443 42.2266L37.7632 42.7005C38.3035 43.4734 38.9911 44.132 39.7866 44.6385C41.4941 45.5349 43.8248 45.4111 44.9774 44.3738C45.3644 43.9937 45.6058 43.4899 45.6596 42.9502C45.7134 42.4104 45.5762 41.8689 45.2719 41.4198C44.8451 40.8265 43.9913 40.327 41.6051 39.2855C38.8517 38.0987 37.665 37.3645 36.5807 36.1949C35.9039 35.423 35.4041 34.5124 35.1166 33.5269C34.9021 32.401 34.8704 31.2479 35.0227 30.1119C35.5904 27.4525 37.5839 25.5956 40.4952 25.0449C41.8434 24.8781 43.2091 24.9155 44.5462 25.1559V25.1474ZM32.0217 27.3842V29.5698H25.0935V49.3042H20.1802V29.5655H13.235V27.4311C13.2163 26.6964 13.2363 25.9611 13.2947 25.2285C13.3203 25.1943 17.5635 25.1772 22.686 25.1858H31.9961L32.0217 27.3842Z" fill="#8A6442"/>
</svg>
